<svg xmlns="http://www.w3.org/2000/svg" width="92" height="108" viewBox="0 0 92 108" role="img" aria-label="PWA">
  <defs>
    
    <linearGradient id="tbg" x1="0" y1="0" x2="0.4" y2="1">
      <stop offset="0" stop-color="#2a1e07" stop-opacity="1" />
      <stop offset="0.42" stop-color="#0b0904" stop-opacity="1" />
      <stop offset="1" stop-color="#050403" stop-opacity="1" />
    </linearGradient>
    <linearGradient id="tbg-kenar" x1="0" y1="0" x2="1" y2="1">
      <stop offset="0" stop-color="#fbe9a6" stop-opacity=".65" />
      <stop offset=".5" stop-color="#d4af37" stop-opacity=".45" />
      <stop offset="1" stop-color="#8c6a14" stop-opacity=".5" />
    </linearGradient>
    
    <linearGradient id="ig" x1="0" y1="0" x2="0" y2="1">
      <stop offset="0" stop-color="#fff6d6" />
      <stop offset=".38" stop-color="#f5d76e" />
      <stop offset=".62" stop-color="#d4af37" />
      <stop offset="1" stop-color="#9a7415" />
    </linearGradient>
    <radialGradient id="ih"><stop offset="0" stop-color="#ffe27a" stop-opacity=".55" /><stop offset="1" stop-color="#ffe27a" stop-opacity="0" /></radialGradient>
    <style>
      .kutu { fill: url(#tbg); stroke: url(#tbg-kenar); stroke-width: 1.2; }
      .etk { font-family: 'Segoe UI', Ubuntu, 'Helvetica Neue', Helvetica, sans-serif; font-size: 13px; font-weight: 600; fill: #c9ab5e; }
      /* Hareket bilincli sekilde hafif: sayfada baska seyler de oynuyor,
         ikonlar dikkati calmadan yasiyor olsun. */
      .bob { animation: bob 5s ease-in-out infinite alternate; }
      @keyframes bob { from { transform: translateY(-1.5px); } to { transform: translateY(1.5px); } }
      .nabiz { animation: nabiz 4.5s ease-in-out infinite; }
      @keyframes nabiz { 0%,100% { transform: scale(1); } 50% { transform: scale(1.06); } }
      .sallan { animation: sallan 5s ease-in-out infinite; }
      @keyframes sallan { 0%,100% { transform: rotate(-4deg); } 50% { transform: rotate(4deg); } }
      .don { animation: don 22s linear infinite; }
      @keyframes don { to { transform: rotate(360deg); } }
      .alev { animation: alev 3s ease-in-out infinite; }
      @keyframes alev {
        0%,100% { transform: scale(1) rotate(-1.5deg); }
        50% { transform: scale(1.05) rotate(1.5deg); }
      }
      .isik { animation: isik 4.5s ease-in-out infinite; }
      @keyframes isik { 0%,100% { opacity: .35; } 50% { opacity: .8; } }
      @media (prefers-reduced-motion: reduce) {
        * { animation-duration: .01ms !important; }
      }
    </style>
  </defs>
  <rect class="kutu" x="3" y="3" width="86" height="102" rx="18" />
  <g transform="translate(46 40)">
    <circle class="isik" r="30" fill="url(#ih)" />
    <g class="bob">
      <g class="nabiz">
        <g transform="translate(-20 -20) scale(1.6667)">
          <path d="M20.5967 7.482L24 16.518h-2.5098l-.5816-1.6184h-3.2452l.6933-1.7532h2.0019l-.95-2.6597 1.1881-3.0047zm-8.111 0l1.7722 5.8393L16.75 7.482h2.4154l-3.6433 9.036h-2.3833l-1.6395-5.2366-1.7196 5.2366h-2.377l-1.233-2.1161 1.2144-3.7415 1.342 2.6609 1.9029-5.8393h1.8566zm-8.7453 0c1.0635 0 1.8713.3055 2.4234.9166a2.647 2.647 0 01.2806.3684l-1.0753 3.3128-.3847 1.1854c-.352.1006-.7533.1509-1.204.1509H2.2928v3.102H0V7.482zm-.5816 1.7532h-.866v2.4276h.8597c.5577 0 .9406-.1194 1.1485-.3582.1896-.215.2845-.5058.2845-.8724 0-.364-.1079-.6544-.3235-.8714-.2157-.217-.5834-.3256-1.1032-.3256z" fill="url(#ig)" />
        </g>
      </g>
    </g>
  </g>
  <text class="etk" x="46" y="90" text-anchor="middle">PWA</text>
</svg>
