<svg xmlns="http://www.w3.org/2000/svg" width="500" height="350" viewBox="0 0 500 350" role="img" aria-label="Name: Ferhat Yasinoglu, Role: Full Stack Developer, Status: Building cool stuff, Experience: 2+ yil, Location: Dusseldorf, Germany, Focus: Web Development, Languages: de / tr / en / fa, Diller: JavaScript %45.9, TypeScript %32.5, HTML %11.6, CSS %9.8, Dockerfile %0.1">
  <defs><style>
    text { font-family: 'JetBrains Mono', 'SFMono-Regular', Consolas, 'Liberation Mono', Menlo, monospace; }
    .panel { fill: #0a120b; stroke: #1e3a20; stroke-width: 1; }
    .etiket { font-size: 12px; fill: #4ade80; }
    .anahtar { font-size: 12.5px; fill: #6fbf78; }
    .deger { font-size: 12.5px; fill: #d4f5d6; }
    .kucuk { font-size: 11px; fill: #3d6b42; }
    .gir { animation: gir .6s ease-out backwards; }
    @keyframes gir { from { opacity: 0; transform: translateY(6px); } to { opacity: 1; transform: none; } }
    .yanip { animation: yanip 1.1s steps(1) infinite; }
    @keyframes yanip { 0%,50% { opacity: 1; } 50.01%,100% { opacity: 0; } }
    @media (prefers-reduced-motion: reduce) {
      * { animation-duration: .01ms !important; animation-delay: 0s !important; }
    }</style></defs>
  <rect width="500" height="350" fill="#050a05" />
  
  <rect class="panel" x=".5" y=".5" width="499" height="349" rx="3" />
  <text class="etiket" x="14" y="21">&gt; system_info</text>
  <line x1="0" y1="28" x2="500" y2="28" stroke="#1e3a20" stroke-width="1" />
  
    <text class="anahtar" x="16" y="54">Name        :</text>
    <text class="deger" x="120" y="54">Ferhat Yasinoglu</text>
    <text class="anahtar" x="16" y="80">Role        :</text>
    <text class="deger" x="120" y="80">Full Stack Developer</text>
    <text class="anahtar" x="16" y="106">Status      :</text>
    <text class="deger" x="120" y="106">Building cool stuff</text>
    <text class="anahtar" x="16" y="132">Experience  :</text>
    <text class="deger" x="120" y="132">2+ yil</text>
    <text class="anahtar" x="16" y="158">Location    :</text>
    <text class="deger" x="120" y="158">Dusseldorf, Germany</text>
    <text class="anahtar" x="16" y="184">Focus       :</text>
    <text class="deger" x="120" y="184">Web Development</text>
    <text class="anahtar" x="16" y="210">Languages   :</text>
    <text class="deger" x="120" y="210">de / tr / en / fa</text>
    <line x1="16" y1="248" x2="484" y2="248"
          stroke="#1e3a20" stroke-width=".8" stroke-dasharray="2 3" />
    <text class="kucuk" x="16" y="266">depolardaki dil dagilimi</text><rect x="16.0" y="278" width="215.0" height="8" fill="#f1e05a" /><rect x="231.0" y="278" width="152.2" height="8" fill="#3178c6" /><rect x="383.2" y="278" width="54.4" height="8" fill="#e34c26" /><rect x="437.6" y="278" width="45.8" height="8" fill="#663399" /><rect x="483.5" y="278" width="0.5" height="8" fill="#384d54" />
    <circle cx="20" cy="302" r="4" fill="#f1e05a" />
    <text class="anahtar" x="30" y="306" font-size="11.5">JavaScript</text>
    <text class="kucuk" x="236" y="306" text-anchor="end">45.9%</text>
    <circle cx="254" cy="302" r="4" fill="#3178c6" />
    <text class="anahtar" x="264" y="306" font-size="11.5">TypeScript</text>
    <text class="kucuk" x="470" y="306" text-anchor="end">32.5%</text>
    <circle cx="20" cy="322" r="4" fill="#e34c26" />
    <text class="anahtar" x="30" y="326" font-size="11.5">HTML</text>
    <text class="kucuk" x="236" y="326" text-anchor="end">11.6%</text>
    <circle cx="254" cy="322" r="4" fill="#663399" />
    <text class="anahtar" x="264" y="326" font-size="11.5">CSS</text>
    <text class="kucuk" x="470" y="326" text-anchor="end">9.8%</text>
</svg>
